# xmcd
#
# Track frame offsets:
#	150
#	32605
#	49311
#	66724
#	81351
#	112993
#	143256
#	176348
#	211225
#	243961
#	258183
#	292536
#	315113
#
# Disc length: 4425 seconds
#
# Revision: 1
# Processed by: cddbd v1.5.2PL0 Copyright (c) Steve Scherf et al.
# Submitted via: dBpowerAMP V4.0
#
DISCID=a411470d
DTITLE=Various Artist - Top Hits USA RD62 11/2007
DYEAR=2007
DGENRE=Dance
TTITLE0=Mika - Love Today (Club Mix) (Dance Mix)
TTITLE1=Plumb - In My Arms (Bimbo Jones Radio Edit) (Dance Mix)
TTITLE2=Fall Out Boy - THNKS FR THE MMRS (Lenny B Short Term Memory Edit) (Dance Mix)
TTITLE3=Jennifer Lopez - Hold It, Don't Drop It (Dance Remix)
TTITLE4=Stevie Nicks - Stand Back (Morgan Page Vox Mix) (Dance Mix)
TTITLE5=Nelly Furtado - All Good Things (Kaskade Remix) (Dance Mix)
TTITLE6=Tony Moran f Kristine W - Walk Away (Evolution Mix Show Edit) (Dance Mix)
TTITLE7=Maroon 5 - Makes Me Wonder (Harry Choo Choo Romero's Bambossa Mix) (Dance Mix)
TTITLE8=Kimberly Locke - Band Of Gold (Bimbo Jones Mix) (Dance Mix)
TTITLE9=Inez - Stronger (Club Edit) (Dance Mix)
TTITLE10=Leana - I Just Died In Your Arms Tonight (StoneBridge Club Mix) (Dance Mix)
TTITLE11=Idina Menzel - Defying Gravity (Hani Flying So High Mix) (Dance Mix)
TTITLE12=Young Love - Find A New Way (Club Mix) (Dance Mix)
EXTD=
EXTT0=
EXTT1=
EXTT2=
EXTT3=
EXTT4=
EXTT5=
EXTT6=
EXTT7=
EXTT8=
EXTT9=
EXTT10=
EXTT11=
EXTT12=
PLAYORDER=
